<?xml version="1.0" encoding="UTF-8"?>
<svg version="1.1" xmlns="http://www.w3.org/2000/svg" width="443" height="500">
<path d="M0 0 C1.01134858 -0.00750224 2.02269717 -0.01500447 3.06469268 -0.02273405 C6.4578297 -0.04408746 9.85062093 -0.04395045 13.24382019 -0.04379272 C15.67490172 -0.05440479 18.10597819 -0.06623463 20.53704834 -0.07919312 C27.14452695 -0.10999987 33.75192057 -0.12112449 40.35945344 -0.12683535 C44.4868252 -0.13058866 48.61417616 -0.13939846 52.74153709 -0.14933395 C64.17409822 -0.17626938 75.60663926 -0.19878195 87.03923512 -0.20121193 C88.13615435 -0.20144529 88.13615435 -0.20144529 89.25523357 -0.20168336 C90.73764241 -0.20197441 92.22005125 -0.20225979 93.70246009 -0.20253952 C94.43830619 -0.20268237 95.17415229 -0.20282523 95.93229675 -0.20297241 C96.66904323 -0.20311208 97.4057897 -0.20325175 98.16486182 -0.20339565 C110.10297465 -0.20653097 122.04072467 -0.24312231 133.97871772 -0.29460867 C146.24183061 -0.34707473 158.5047644 -0.37332469 170.7679922 -0.37276304 C177.65080798 -0.37301553 184.53320672 -0.3842244 191.41591835 -0.42393875 C197.88965205 -0.46110377 204.36276509 -0.46211022 210.83656883 -0.43876648 C213.21175162 -0.43590244 215.5869836 -0.44499171 217.96206665 -0.46694565 C221.20707086 -0.49507914 224.44913276 -0.47996364 227.6940918 -0.45410156 C228.63233364 -0.47244509 229.57057549 -0.49078862 230.53724891 -0.50968802 C236.77320659 -0.39739562 239.90333034 1.20757255 244.349415 5.57542384 C244.9064901 6.18013022 245.4635652 6.78483661 246.03752136 7.40786743 C246.59115398 8.00855714 247.14478659 8.60924685 247.71519595 9.22813928 C249.17858399 10.85949651 250.58063758 12.52976369 251.97502136 14.22036743 C253.0104265 15.4530237 254.04689236 16.68478972 255.08439636 17.91567993 C255.58519714 18.51154907 256.08599792 19.10741821 256.60197449 19.72134399 C258.59224533 22.05957376 260.6538941 24.32871416 262.72502136 26.59536743 C265.71670297 29.88728948 268.56276559 33.2537805 271.35002136 36.72036743 C275.24072844 41.53452331 279.36752602 46.05711077 283.59538269 50.57119751 C286.71276863 53.91850986 289.67311303 57.33773531 292.53752136 60.90786743 C296.8767948 66.31223526 301.54148551 71.35741866 306.26408386 76.42349243 C310.5685765 81.04140504 314.68064542 85.8154835 318.77580261 90.61880493 C319.2753949 91.20403931 319.77498718 91.78927368 320.28971863 92.39224243 C321.32909775 93.61002852 322.36734914 94.82877805 323.40446472 96.04849243 C325.85929989 98.92229538 328.33586397 101.75847276 330.92814636 104.50942993 C331.80986511 105.44528931 332.69158386 106.38114868 333.60002136 107.34536743 C334.38506042 108.15876587 335.17009949 108.97216431 335.97892761 109.81021118 C341.77176262 117.11995555 341.44183503 123.97710681 341.33049011 132.99771118 C341.32624527 134.2973732 341.32200043 135.59703522 341.31762695 136.93608093 C341.30624085 140.37046002 341.27682886 143.80445094 341.24351501 147.23867798 C341.21267844 150.75140128 341.19909277 154.26418806 341.18400574 157.77700806 C341.151952 164.65411938 341.10083251 171.5309747 341.03752136 178.40786743 C342.57364075 178.3861145 342.57364075 178.3861145 344.14079285 178.36392212 C345.50089741 178.35219202 346.86100506 178.3408176 348.22111511 178.32974243 C348.89412659 178.3192688 349.56713806 178.30879517 350.26054382 178.29800415 C359.02695204 178.24453414 366.28516944 180.73705096 372.63127136 186.97427368 C377.97260092 192.82617151 380.40879433 198.39324376 380.42520142 206.34596252 C380.43327972 207.33877042 380.43327972 207.33877042 380.44152123 208.35163504 C380.45572926 210.55017927 380.4487153 212.74811529 380.4415741 214.94668579 C380.44728143 216.53078187 380.4542471 218.11487383 380.46237183 219.69895935 C380.48027811 223.98826096 380.47913966 228.27735771 380.47342944 232.56668544 C380.47033397 236.15262618 380.47643402 239.73852778 380.48246819 243.32446295 C380.49650345 251.78646113 380.4949604 260.24835833 380.48356628 268.71035767 C380.4720854 277.42926407 380.48616245 286.14786285 380.51296276 294.86672872 C380.53514012 302.36334549 380.54175257 309.85986585 380.53588635 317.35651308 C380.53252051 321.82916512 380.53490699 326.30161998 380.55213737 330.77424431 C380.56763701 334.98099564 380.56361777 339.18729224 380.54483223 343.3940258 C380.5411547 344.93388789 380.54423041 346.47378389 380.55471802 348.01361465 C380.62636563 359.40691126 379.32647737 366.926145 371.03752136 375.40786743 C368.76207242 376.99806624 366.54282467 378.15521578 364.03752136 379.40786743 C363.33240417 379.77138306 362.62728699 380.13489868 361.90080261 380.50942993 C357.82182148 381.78932851 353.97044866 381.61998749 349.72502136 381.53286743 C348.88906433 381.52384399 348.0531073 381.51482056 347.19181824 381.50552368 C345.14026167 381.48207732 343.08885359 381.44621009 341.03752136 381.40786743 C341.04640381 382.66352509 341.05528625 383.91918274 341.06443787 385.21289062 C341.14567482 397.07093795 341.20555936 408.92892849 341.24477005 420.78719139 C341.26560665 426.88303642 341.2938529 432.97865602 341.33927917 439.07437134 C341.38287642 444.96178007 341.40668799 450.84897254 341.41703033 456.7365303 C341.42439677 458.97791572 341.43878154 461.21928987 341.46044159 463.46058273 C341.48965952 466.61042211 341.49346962 469.75937827 341.49162292 472.90933228 C341.51319458 474.28606613 341.51319458 474.28606613 341.53520203 475.69061279 C341.49031851 482.80834897 340.17250872 489.97528507 335.22874832 495.3883419 C330.79394233 499.38895115 327.4247998 500.53115517 321.42767048 500.54488182 C320.25272662 500.54995636 319.07778275 500.55503091 317.86723453 500.56025922 C315.92165339 500.56100586 315.92165339 500.56100586 313.93676758 500.56176758 C312.54982098 500.56578209 311.16287555 500.5702203 309.77593154 500.57504714 C305.95582496 500.58701969 302.13573101 500.59266266 298.31560934 500.59722829 C294.19889774 500.60318177 290.08220127 500.61479222 285.96549988 500.6255188 C276.01928298 500.65004814 266.07306106 500.66467048 256.12682322 500.67757887 C253.31810388 500.68129033 250.50938503 500.6852636 247.70066619 500.68933153 C230.26298022 500.71456693 212.82529347 500.73662241 195.38759327 500.74905968 C191.34796966 500.75198943 187.30834608 500.75495108 183.26872253 500.75796509 C182.26468034 500.75871114 181.26063815 500.75945719 180.22617044 500.76022585 C163.95869842 500.7728814 147.69133565 500.80610691 131.42391471 500.84776692 C114.72671713 500.89017745 98.02957551 500.91375367 81.33232421 500.91898024 C71.95570557 500.92239529 62.57925769 500.93416162 53.20269203 500.96708298 C45.21766557 500.9950725 37.23284486 501.00608765 29.24777315 500.99488752 C25.1737857 500.98969808 21.10022919 500.99260575 17.02630424 501.01735306 C13.29469327 501.03983169 9.56382314 501.03911724 5.8321993 501.02014919 C3.84693894 501.01602244 1.8616742 501.03650517 -0.12347478 501.05793607 C-7.28338134 500.99421956 -12.5412512 500.36953472 -17.96247864 495.40786743 C-21.37446514 491.03352576 -23.08934423 487.59437 -23.08273315 482.06089783 C-23.08410782 481.17328766 -23.08548248 480.28567749 -23.0868988 479.37117004 C-23.08150589 477.91460747 -23.08150589 477.91460747 -23.07600403 476.42861938 C-23.07615005 475.4040564 -23.07629608 474.37949341 -23.07644653 473.32388306 C-23.07574887 469.93128353 -23.06796325 466.53873864 -23.06013489 463.14614868 C-23.05827019 460.79631073 -23.05684653 458.44647239 -23.05584717 456.09663391 C-23.05202607 449.90703257 -23.04219923 443.71745463 -23.03114319 437.52786255 C-23.02092033 431.21377886 -23.01634767 424.89969139 -23.01130676 418.58560181 C-23.00057663 406.19301339 -22.98350506 393.80044236 -22.96247864 381.40786743 C-24.26588196 381.43324585 -25.56928528 381.45862427 -26.91218567 381.48477173 C-28.63988061 381.50529764 -30.367583 381.52520307 -32.09529114 381.54458618 C-33.38076843 381.57207947 -33.38076843 381.57207947 -34.69221497 381.60012817 C-43.0990794 381.67082502 -48.3188696 379.40372375 -54.77497864 374.09536743 C-60.00641651 367.66817233 -63.07878464 362.45078423 -63.10964966 354.03344727 C-63.11516469 353.05907493 -63.11516469 353.05907493 -63.12079114 352.0650183 C-63.13182078 349.88420872 -63.13567062 347.70344681 -63.13948059 345.52261353 C-63.14574591 343.96043751 -63.15239278 342.39826298 -63.15939331 340.83609009 C-63.18043233 335.70117225 -63.19079725 330.56625413 -63.20075989 325.43130493 C-63.20480785 323.66239023 -63.20892479 321.89347569 -63.21310997 320.12456131 C-63.23216325 311.81170672 -63.24639259 303.49886101 -63.25472194 295.18598878 C-63.26448777 285.59819864 -63.29078956 276.01063976 -63.33122283 266.42293108 C-63.36141718 259.00792732 -63.37619406 251.59298973 -63.37950295 244.17792571 C-63.38185015 239.7515427 -63.39076705 235.32540672 -63.41596413 230.89908981 C-63.4393073 226.73100232 -63.44345316 222.56332339 -63.43320274 218.39518738 C-63.43270874 216.87024702 -63.43898897 215.34528613 -63.45275879 213.82040787 C-63.54559454 202.92485472 -62.370431 194.27564681 -54.80622864 185.97817993 C-47.63504825 179.87052206 -39.84112657 178.24053314 -30.71247864 178.34536743 C-29.96740051 178.34987915 -29.22232239 178.35439087 -28.45466614 178.35903931 C-26.62390224 178.37077497 -24.79317991 178.38870893 -22.96247864 178.40786743 C-22.96524402 177.56818609 -22.9680094 176.72850475 -22.97085857 175.86337852 C-23.03711111 155.43224319 -23.08675569 135.00112638 -23.11791515 114.56990623 C-23.13338415 104.68951942 -23.15447432 94.80920431 -23.188797 84.92886353 C-23.21869832 76.31717621 -23.23805341 67.70554083 -23.24474412 59.09380305 C-23.24865513 54.53392968 -23.25784726 49.97420488 -23.27966881 45.41437912 C-23.30004552 41.12164754 -23.30631004 36.8291256 -23.30180168 32.53635025 C-23.30262635 30.96177786 -23.308585 29.38719839 -23.32009506 27.81266785 C-23.33505815 25.66001185 -23.33141892 23.50814362 -23.32324219 21.35546875 C-23.32600757 20.15160711 -23.32877295 18.94774548 -23.33162212 17.70740318 C-22.6280433 11.41856544 -19.61572961 7.50715996 -14.96247864 3.40786743 C-10.24162239 -0.33624176 -5.76291208 -0.02417351 0 0 Z M-1.96247864 20.40786743 C-1.96247864 72.54786743 -1.96247864 124.68786743 -1.96247864 178.40786743 C104.29752136 178.40786743 210.55752136 178.40786743 320.03752136 178.40786743 C320.03752136 162.56786743 320.03752136 146.72786743 320.03752136 130.40786743 C313.81521667 130.43107056 307.59291199 130.45427368 301.18205261 130.47817993 C297.23999115 130.48839905 293.29794602 130.498027 289.35588074 130.50552368 C283.09892891 130.51747899 276.84203563 130.53162208 270.58512878 130.55874634 C265.54066005 130.5804777 260.4962541 130.59243672 255.45174217 130.59762192 C253.52722371 130.60131713 251.60270867 130.60853292 249.67821693 130.61932755 C246.98256124 130.63384628 244.28716495 130.6358452 241.59147644 130.63491821 C240.79593857 130.64210876 240.0004007 130.64929932 239.18075562 130.65670776 C234.14604094 130.63797452 230.24373177 130.22011169 226.28752136 126.97036743 C204.08751511 99.22035961 223.38591001 55.94350922 223.03752136 20.40786743 C148.78752136 20.40786743 74.53752136 20.40786743 -1.96247864 20.40786743 Z M11.35002136 210.72036743 C9.87456848 210.77221191 9.87456848 210.77221191 8.36930847 210.82510376 C-0.20448113 211.210815 -8.36628993 212.33334384 -16.96247864 213.40786743 C-16.96247864 260.92786743 -16.96247864 308.44786743 -16.96247864 357.40786743 C-6.73247864 357.40786743 3.49752136 357.40786743 14.03752136 357.40786743 C14.03752136 339.91786743 14.03752136 322.42786743 14.03752136 304.40786743 C15.02752136 304.73786743 16.01752136 305.06786743 17.03752136 305.40786743 C36.44160138 306.49282674 57.37175814 304.71012211 72.53752136 291.28286743 C80.97519527 283.32499626 85.82957829 272.6347128 86.33830261 261.04067993 C86.52747168 246.53188957 84.33532359 234.98274917 73.81486511 224.11099243 C56.69825343 209.30442753 32.66634214 209.93483323 11.35002136 210.72036743 Z M138.28752136 210.72036743 C137.32024109 210.75501099 136.35296082 210.78965454 135.35636902 210.8253479 C126.4754652 211.22963117 117.93587358 212.36100246 109.03752136 213.40786743 C109.03752136 260.59786743 109.03752136 307.78786743 109.03752136 356.40786743 C119.20225031 359.79611042 131.45639822 358.64997703 142.10002136 358.65786743 C142.92078156 358.65854218 143.74154175 358.65921692 144.58717346 358.65991211 C156.61395193 358.64421499 168.31818725 358.38637412 180.03752136 355.40786743 C181.07610291 355.15045776 181.07610291 355.15045776 182.13566589 354.8878479 C199.99691075 350.29425264 216.00322051 341.3446982 226.03752136 325.40786743 C237.66458582 303.8699996 240.76310071 279.07959519 233.71769714 255.46694946 C228.90505863 240.89774874 219.42932614 228.98705907 206.03752136 221.40786743 C184.78043782 210.71613575 161.63291308 209.83419688 138.28752136 210.72036743 Z M260.03752136 211.40786743 C260.03752136 259.58786743 260.03752136 307.76786743 260.03752136 357.40786743 C270.59752136 357.40786743 281.15752136 357.40786743 292.03752136 357.40786743 C292.03752136 337.93786743 292.03752136 318.46786743 292.03752136 298.40786743 C309.19752136 298.40786743 326.35752136 298.40786743 344.03752136 298.40786743 C344.03752136 289.82786743 344.03752136 281.24786743 344.03752136 272.40786743 C326.87752136 272.40786743 309.71752136 272.40786743 292.03752136 272.40786743 C292.03752136 260.85786743 292.03752136 249.30786743 292.03752136 237.40786743 C310.51752136 237.40786743 328.99752136 237.40786743 348.03752136 237.40786743 C348.03752136 229.15786743 348.03752136 220.90786743 348.03752136 212.40786743 C318.99752136 212.07786743 289.95752136 211.74786743 260.03752136 211.40786743 Z M-1.96247864 381.40786743 C-1.96247864 412.09786743 -1.96247864 442.78786743 -1.96247864 474.40786743 C157.42752136 474.90286743 157.42752136 474.90286743 320.03752136 475.40786743 C320.03752136 444.38786743 320.03752136 413.36786743 320.03752136 381.40786743 C213.77752136 381.40786743 107.51752136 381.40786743 -1.96247864 381.40786743 Z " fill="#000000" transform="translate(62.96247863769531,-0.407867431640625)"/>
<path d="M0 0 C9.09275179 9.39517148 11.90064809 21.78692322 11.75 34.4375 C11.73876099 35.6896228 11.73876099 35.6896228 11.72729492 36.96704102 C11.4807722 51.07943368 7.63626145 64.68521339 -2.5 75 C-14.45543803 85.62705603 -30.03158695 87.79685764 -45.5 87 C-47.15 86.67 -48.8 86.34 -50.5 86 C-50.5 53.99 -50.5 21.98 -50.5 -11 C-35.39256512 -18.55371744 -11.48719188 -10.33597003 0 0 Z " fill="#000000" transform="translate(254.5,247)"/>
<path d="M0 0 C5.91521634 5.03650666 8.67633341 10.05126763 9.3125 17.8125 C9.07870803 25.45457514 6.43598932 31.68755589 1 37 C-7.71022 43.45280357 -17.53457276 43.55420366 -28 43 C-29.32 42.67 -30.64 42.34 -32 42 C-32 27.15 -32 12.3 -32 -3 C-21.52572936 -5.09485413 -9.4702533 -5.65058447 0 0 Z " fill="#000000" transform="translate(109,238)"/>
</svg>
